<svg width="84" height="20" viewBox="0 0 84 20" fill="none" xmlns="http://www.w3.org/2000/svg">
<path d="M14.8337 4.01068C13.7558 3.30663 12.9789 2.185 12.7361 0.873998C12.6827 0.592377 12.6536 0.301044 12.6536 0H9.21583L9.21097 13.78C9.15271 15.3241 7.88541 16.5623 6.32678 16.5623C5.84123 16.5623 5.38966 16.4409 4.98665 16.2321C4.06895 15.7465 3.43773 14.7851 3.43773 13.6732C3.43773 12.0806 4.73416 10.7842 6.32678 10.7842C6.62297 10.7842 6.90944 10.8327 7.18135 10.9201V8.2253V7.40956C6.89973 7.37072 6.61811 7.34644 6.32678 7.34644C2.83564 7.34644 0 10.1869 0 13.6732C0 15.8145 1.06821 17.7082 2.69968 18.8541C3.72905 19.5776 4.97694 20 6.32678 20C9.81792 20 12.6536 17.1595 12.6536 13.6732V6.68123C14.0034 7.64749 15.6543 8.22044 17.4363 8.22044V5.54989V4.78271C16.4797 4.78271 15.5815 4.49624 14.8337 4.01068Z" fill="white"/>
<path d="M20.7224 5.42841H31.5649L30.5695 8.5311H27.7581V19.9999H24.2524V8.52624L20.7273 8.5311L20.7224 5.42841Z" fill="white"/>
<path d="M49.321 5.42841H60.4111L59.4157 8.52624H56.3567V19.995H52.8462V8.52624L49.321 8.5311V5.42841Z" fill="white"/>
<path d="M32.2208 10.0596H35.6974L35.6925 19.994H32.2451L32.2208 10.0596Z" fill="white"/>
<path d="M37.075 5.38416H40.5467V12.1674L43.9893 8.79275H48.1359L43.7853 13.0171L48.6603 19.9945H44.8341L41.5809 15.1584L40.5515 16.1586V19.9945H37.0798V5.38416H37.075Z" fill="white"/>
<path d="M72.3801 5.38416H75.8518V12.1674L79.2944 8.79275H83.4411L79.0905 13.0171L83.9655 19.9945H80.1393L76.8861 15.1584L75.8567 16.1586V19.9945H72.3801V5.38416Z" fill="white"/>
<path d="M33.9591 8.9244C34.9244 8.9244 35.7071 8.14179 35.7071 7.1764C35.7071 6.21101 34.9244 5.42841 33.9591 5.42841C32.9937 5.42841 32.2111 6.21101 32.2111 7.1764C32.2111 8.14179 32.9937 8.9244 33.9591 8.9244Z" fill="white"/>
<path d="M65.0213 8.09717C61.7389 8.09717 59.0732 10.758 59.0732 14.0452C59.0732 17.3276 61.7341 19.9933 65.0213 19.9933C68.3036 19.9933 70.9693 17.3324 70.9693 14.0452C70.9693 10.7629 68.3085 8.09717 65.0213 8.09717ZM65.0213 16.9343C63.4238 16.9343 62.1322 15.6378 62.1322 14.0452C62.1322 12.4477 63.4287 11.1562 65.0213 11.1562C66.6188 11.1562 67.9103 12.4526 67.9103 14.0452C67.9152 15.6427 66.6188 16.9343 65.0213 16.9343Z" fill="white"/>
</svg>
